<svg id="Capa_1" data-name="Capa 1" xmlns="http://www.w3.org/2000/svg" viewBox="0 0 30.41 22.31"><defs><style>.cls-1{fill:#3452b2;}</style></defs><path class="cls-1" d="M8.57,4.87H1a1.89,1.89,0,0,0,.86,2.44,4.27,4.27,0,0,1-.2,7.18,1.64,1.64,0,0,0,0,2.87,4.28,4.28,0,0,1,.17,7.26A1.86,1.86,0,0,0,1,27c.12.06.21.14.29.14,8.05,0,16.1.12,24.15,0a5.82,5.82,0,0,0,5.51-7.63,17.82,17.82,0,0,0-2.25-3.69,5.92,5.92,0,0,0,2.49-5.51c-.42-3.45-2.82-5.39-6.48-5.4H14.84l0,0ZM17.2,25.44H3.91c.16-1,.79-1.12,1.6-1.12,4.11,0,8.23,0,12.44,0V22.91H5.23l-.15-.54a4.87,4.87,0,0,1,1.47-.54c3.55,0,7.1,0,10.66,0h1.63c.43-1.24-.08-1.46-1-1.45q-5.61,0-11.22,0A5.64,5.64,0,0,1,5.16,20l.1-.54H17.82c.44-1.08.26-1.52-.85-1.51-3.74,0-7.49,0-11.23,0a10.45,10.45,0,0,1-2.21-.6c.41-.34.47-.44.54-.44,4.49,0,9-.12,13.48,0a4,4,0,0,1,3.79,4.47A4.34,4.34,0,0,1,17.2,25.44Zm12.34-4a4.41,4.41,0,0,1-4.14,4c-1.27.06-2.54,0-4.07,0,2.21-2.92,2.28-5.67,0-8.74a44.47,44.47,0,0,1,5.35.35C28.4,17.39,29.74,19.69,29.54,21.46ZM21.6,6.32A40.79,40.79,0,0,1,27,6.94c1.56.38,2.66,2.55,2.49,4.2a4.24,4.24,0,0,1-3.66,3.92,35,35,0,0,1-4.49,0C23.53,12.25,23.64,9.48,21.6,6.32Zm-.26,4.49c0,2.6-1.95,4.36-4.88,4.37H3.92c.07-1,.71-1.13,1.48-1.13,3.84,0,7.67,0,11.51,0,.93,0,1.35-.25,1-1.39H5.27c-.17-1.21.55-1.14,1.22-1.14H18.94V10.1H8.1a13.07,13.07,0,0,1-2,0,3.38,3.38,0,0,1-1-.61L5.26,9H18V7.71a2.06,2.06,0,0,0-.45-.11c-4,0-7.95,0-11.93,0A7,7,0,0,1,3.82,7l.11-.52c.29,0,.59,0,.89-.06,3.88,0,7.76,0,11.65,0C19.49,6.48,21.34,8.15,21.34,10.81Z" transform="translate(-0.79 -4.85)"/></svg>