<?xml version="1.0" encoding="utf-8"?>
<!-- Generator: Adobe Illustrator 26.0.0, SVG Export Plug-In . SVG Version: 6.00 Build 0)  -->
<svg version="1.1" id="Capa_1" xmlns="http://www.w3.org/2000/svg" xmlns:xlink="http://www.w3.org/1999/xlink" x="0px" y="0px"
	 viewBox="0 0 18.1 26.7" style="enable-background:new 0 0 18.1 26.7;" xml:space="preserve">
<style type="text/css">
	.st0{fill:#3452B2;}
</style>
<g>
	<path class="st0" d="M0.9,26.6c-0.1-0.5-0.1-0.9,0.4-1.3c1.4-1,1.4-3-0.1-3.9c-0.6-0.4-0.6-1.1,0-1.6c1.4-1,1.5-2.9,0.1-3.9
		c-0.5-0.4-0.6-0.7-0.5-1.3c1.3,0,2.7,0,4.1,0c0-0.7,0-1.3,0-1.9c-0.3,0-0.6,0-0.9,0c-2.2,0-3.7-1.9-3.2-4.1
		c0.3-1.4,0.6-2.8,0.9-4.2C2.2,3,2,3.9,1.1,3.2C1.8,2.5,2.5,1.7,3.3,1C4.1,0.3,5,0.2,6,0.7C7.1,1.1,7.6,2,7.6,3.2c0,1,0,2,0,3.1
		c3.2,0,6.4,0,9.6,0c0.2,0.6,0.2,1-0.4,1.3c-1.4,0.9-1.4,2.9,0,3.8c0.6,0.4,0.6,0.4,0.5,1.3c-3.2,0-6.4,0-9.6,0c0,0.7,0,1.3,0,1.9
		c2.1,0,4.1,0,6.1,0c2,0,3.3,1.1,3.5,2.9c0.2,1.3-0.4,2.3-1.4,3c0.4,0.7,1,1.3,1.2,2c0.6,2-0.8,4.1-3,4.1c-4.4,0.1-8.7,0-13.1,0
		C1,26.7,1,26.6,0.9,26.6z M2.4,19.9c0,0.1,0.1,0.2,0.1,0.3c2.3,0,4.5,0,6.8,0c1.6,0,2.7-1,2.7-2.4c0-1.4-1-2.4-2.6-2.4
		c-2.1,0-4.2,0-6.3,0c-0.2,0-0.3,0-0.5,0c0,0.1,0,0.2-0.1,0.3c0.3,0.1,0.6,0.3,0.9,0.3c2.2,0,4.5,0,6.7,0c0,0.3,0,0.5,0,0.8
		c-2.3,0-4.6,0-6.9,0c-0.1,0.7,0.3,0.6,0.7,0.6c2.2,0,4.5,0,6.7,0c0,0.3,0,0.5,0,0.8c-0.3,0-0.6,0-0.9,0c-2,0-3.9,0-5.9,0
		c-0.4,0-0.8,0-0.7,0.6c2.3,0,4.6,0,6.9,0c0.2,0.6,0,0.8-0.5,0.8c-2.1,0-4.2,0-6.2,0C3,19.6,2.7,19.8,2.4,19.9z M15.7,7.5
		c0-0.1,0-0.2-0.1-0.3c-2.4,0-4.9,0-7.3,0c-0.7,0-1.3,0.4-1.7,1C6.1,9,6,9.8,6.5,10.6c0.5,0.8,1.2,1.2,2.2,1.2c2.3,0,4.5,0,6.8,0
		c0.1,0,0.2,0,0.3-0.1c0-0.1,0-0.1,0-0.2c-0.3-0.1-0.6-0.3-0.8-0.3c-1.4,0-2.8,0-4.2,0c-0.9,0-1.7,0-2.6,0c-0.2-0.6,0-0.8,0.5-0.8
		c1.4,0,2.9,0,4.3,0c0.7,0,1.4,0,2,0c0-0.1,0.1-0.2,0.1-0.3c-0.2-0.1-0.5-0.3-0.7-0.3c-2.2,0-4.3,0-6.5,0c-0.1,0-0.2,0-0.3-0.1
		c0-0.2,0-0.5,0-0.7c0.2,0,0.4,0,0.6,0c2,0,4.1,0,6.1,0c0.4,0,0.8,0.1,0.6-0.6c-2.3,0-4.6,0-6.9,0C7.8,7.9,8,7.7,8.6,7.7
		c2.1,0,4.2,0,6.2,0C15.1,7.7,15.4,7.6,15.7,7.5z M10.6,23.8c-0.3,0-0.6,0-0.9,0c-1.9,0-3.9,0-5.8,0c-0.3,0-0.5,0.2-0.8,0.3
		c0,0.1,0.1,0.2,0.1,0.3c2.3,0,4.6,0,6.9,0c0,0.3,0,0.5,0,0.8c-2.3,0-4.5,0-6.8,0c-0.4,0-0.8,0.1-0.9,0.6c2.3,0,4.5,0,6.7,0
		c0.2,0,0.4,0,0.5,0c1.2-0.1,2.2-1,2.2-2.2c0.1-1.3-0.8-2.4-2.1-2.4c-2.4-0.1-4.9,0-7.3,0c0,0-0.1,0.1-0.3,0.2
		c0.5,0.1,0.8,0.3,1.2,0.3c2,0,4.1,0,6.1,0c0.6,0,0.7,0.2,0.5,0.8c-2.3,0-4.5,0-6.8,0c0,0.1,0,0.2-0.1,0.3C3.4,22.9,3.7,23,4,23
		c2,0,4.1,0,6.1,0C10.6,23,10.8,23.1,10.6,23.8z M6.7,6.1c0-1,0-2.1,0-3.1c0-0.8-0.7-1.5-1.4-1.7c-0.8-0.2-1.6,0.1-1.9,1
		C2.9,3.7,2.6,5.2,2.3,6.5C3.8,6.4,5.2,6.2,6.7,6.1z M12,20.2c0.9,0,1.6,0.1,2.4,0c1.1-0.1,2-1,2.1-2.1c0.1-0.9-0.5-2.1-1.4-2.3
		c-1-0.2-2-0.2-2.9-0.3C13.2,17.1,13.2,18.6,12,20.2z M12,25.8c0.9,0,1.6,0,2.3,0c1.2-0.1,2.1-1.1,2.1-2.3c0-1-0.7-2.2-1.7-2.3
		C13.9,21.1,13,21.1,12,21C13.2,22.7,13.2,24.2,12,25.8z M6.2,7.2c-0.7,0-1.3,0-1.9,0c-0.2,0-0.4,0-0.6,0c-1,0.2-1.8,1.1-1.9,2.1
		c-0.1,1.1,0.5,2.2,1.5,2.4c0.9,0.2,1.8,0.1,2.9,0.2C5,10.2,5,8.7,6.2,7.2z M6.7,14.6c0.2-1.7,0.2-1.9-0.7-1.8c0,0.6,0,1.1,0,1.8
		C6.2,14.6,6.4,14.6,6.7,14.6z"/>
	<path class="st0" d="M4.3,2.3c0.3,0.4,0.5,0.6,0.5,0.8c0,0.2-0.3,0.4-0.5,0.6C4,3.5,3.7,3.3,3.7,3.1C3.6,2.9,4,2.7,4.3,2.3z"/>
</g>
</svg>
